<svg viewBox="0 0 220 130" xmlns="http://www.w3.org/2000/svg">
  <defs>
    <linearGradient id="gstGrad" x1="0%" y1="0%" x2="100%" y2="100%">
      <stop offset="0%" stop-color="#138808"/>
      <stop offset="100%" stop-color="#0a5c05"/>
    </linearGradient>
  </defs>
  <rect width="220" height="130" fill="url(#gstGrad)" rx="10"/>
  <rect x="8" y="8" width="204" height="114" fill="none" stroke="#ffd700" stroke-width="1.5" rx="7" opacity="0.5"/>
  <!-- Ashoka Wheel simplified -->
  <circle cx="110" cy="27" r="13" fill="none" stroke="#ffd700" stroke-width="1.5"/>
  <circle cx="110" cy="27" r="4" fill="#ffd700"/>
  <line x1="110" y1="14" x2="110" y2="19" stroke="#ffd700" stroke-width="1.5"/>
  <line x1="110" y1="35" x2="110" y2="40" stroke="#ffd700" stroke-width="1.5"/>
  <line x1="97" y1="27" x2="102" y2="27" stroke="#ffd700" stroke-width="1.5"/>
  <line x1="118" y1="27" x2="123" y2="27" stroke="#ffd700" stroke-width="1.5"/>
  <line x1="100" y1="18" x2="104" y2="22" stroke="#ffd700" stroke-width="1.5"/>
  <line x1="116" y1="32" x2="120" y2="36" stroke="#ffd700" stroke-width="1.5"/>
  <line x1="120" y1="18" x2="116" y2="22" stroke="#ffd700" stroke-width="1.5"/>
  <line x1="100" y1="32" x2="104" y2="36" stroke="#ffd700" stroke-width="1.5"/>
  <!-- GST text -->
  <text x="110" y="68" text-anchor="middle" fill="white" font-size="38" font-weight="bold" font-family="Arial, sans-serif" letter-spacing="4">GST</text>
  <rect x="25" y="73" width="170" height="1.5" fill="#ffd700" opacity="0.7"/>
  <text x="110" y="90" text-anchor="middle" fill="#ffd700" font-size="10" font-weight="bold" font-family="Arial, sans-serif">GSTIN Registered</text>
  <text x="110" y="104" text-anchor="middle" fill="rgba(255,255,255,0.85)" font-size="8.5" font-family="Arial, sans-serif">Goods &amp; Services Tax</text>
  <text x="110" y="118" text-anchor="middle" fill="rgba(255,255,255,0.65)" font-size="7.5" font-family="Arial, sans-serif">Government of India</text>
</svg>
